<svg viewBox="0 0 200 200" xmlns="http://www.w3.org/2000/svg">
    <g>
        <title>Logo</title>
        <path id="svg_7" d="m-641.62553,-306.58261c-2.20916,0 -4,0.22385 -4,0.5c0,0.27614 1.79084,0.5 4,0.5c2.20919,0 4,-0.22386 4,-0.5c0,-0.27615 -1.79081,-0.5 -4,-0.5zm0.34541,0.77108l0,0.07043l-0.53887,0l0,-0.06963c-0.88428,-0.01514 -1.27178,-0.10596 -1.27178,-0.10596l0.55099,-0.05755c0,0 0.35118,0.07648 0.98693,0.07648c0.35115,0 0.61758,-0.0235 0.61758,-0.06361c0,-0.09388 -2.02257,-0.08249 -2.02257,-0.2566c0,-0.07569 0.47832,-0.13022 1.13856,-0.14308l0,-0.07042l0.5389,0l0,0.07038c0.46016,0.00757 1.00509,0.03785 1.00509,0.10297l0,0.04995l-0.71449,0l0,-0.02422c0,-0.02497 -0.25457,-0.04163 -0.53913,-0.04163c-0.36328,0 -0.62971,0.0227 -0.62971,0.05449c0,0.09612 2.02257,0.07266 2.02257,0.25509c0.00029,0.07496 -0.44777,0.14005 -1.14407,0.15291l0,0z" stroke="#000" fill="#000000" />
        <path id="svg_9" d="m99.99885,1.79074c-54.23955,0 -98.20846,43.96834 -98.20846,98.20844c0,54.23897 43.96891,98.20848 98.20846,98.20848c54.24018,0 98.20846,-43.96951 98.20846,-98.20848c0,-54.24011 -43.96828,-98.20844 -98.20846,-98.20844zm8.48047,151.45371l0,13.83291l-13.23046,0l0,-13.67706c-21.7109,-2.97327 -31.22496,-20.81194 -31.22496,-20.81194l13.52809,-11.30425c0,0 8.62225,15.02123 24.23129,15.02123c8.62156,0 15.16292,-4.61514 15.16292,-12.49505c0,-18.43916 -49.65837,-16.20319 -49.65837,-50.40086c0,-14.86663 11.74378,-25.57672 27.95399,-28.10291l0,-13.83153l13.23101,0l0,13.82388c11.29789,1.48728 24.67713,7.43389 24.67713,20.22428l0,9.8117l-17.54218,0l0,-4.75688c0,-4.90535 -6.25018,-8.17644 -13.23683,-8.17644c-8.9193,0 -15.4607,4.45946 -15.4607,10.70369c0,18.87885 49.65835,14.2712 49.65835,50.10449c0.00709,14.72342 -10.99363,27.5086 -28.08929,30.03473l0,-0.00001z" />
    </g>
</svg>